<svg version="1.0" xmlns="http://www.w3.org/2000/svg" width="79.000000pt" height="79.000000pt" viewBox="0 0 79.000000 79.000000" preserveAspectRatio="xMidYMid meet">
	<g transform="translate(0.000000,79.000000) scale(0.100000,-0.100000)" fill="#000000" stroke="none">
		<path fill="#2965aa" d="M357 748 c-111 -18 -219 -99 -273 -206 -26 -51 -28 -67 -29 -157 0
-88 4 -107 27 -158 15 -31 49 -79 76 -105 118 -115 284 -142 429 -70 64 32
141 111 172 177 22 49 26 69 26 156 -1 90 -3 106 -29 157 -50 99 -158 186
-251 202 -78 13 -91 14 -148 4z m195 -65 c64 -29 133 -95 164 -159 22 -45 26
-67 26 -139 0 -73 -4 -94 -27 -142 -36 -71 -88 -123 -158 -157 -80 -37 -194
-37 -274 0 -67 32 -118 82 -156 152 -25 46 -29 63 -29 140 0 102 19 157 77
221 72 80 152 113 260 108 43 -2 88 -12 117 -24z" />
		<path fill="#2965aa" d="M210 405 l0 -155 210 0 210 0 0 155 0 155 -210 0 -210 0 0 -155z
m370 0 l0 -105 -160 0 -160 0 0 105 0 105 160 0 160 0 0 -105z" />
		<path fill="#ffffff" d="M450 425 c-50 -51 -59 -53 -85 -25 -13 14 -22 17 -29 10 -11 -11 39
-70 59 -70 20 0 120 109 109 120 -7 7 -25 -5 -54 -35z" />
		<path fill="#2965aa" d="M320 190 c0 -19 7 -20 100 -20 93 0 100 1 100 20 0 19 -7 20 -100 20
-93 0 -100 -1 -100 -20z" />
	</g>
</svg>
